<svg width="109" height="101" viewBox="0 0 109 101" fill="none" xmlns="http://www.w3.org/2000/svg">
<path fill-rule="evenodd" clip-rule="evenodd" d="M76.0344 17.8818C74.4844 16.0614 72.9345 15.2303 70.5708 15.2303H18.241C17.0011 15.2303 15.9936 14.2805 15.8774 13.0102L15.1411 4.14562C15.0249 2.80011 14.0562 1.69599 12.7387 1.45459L3.49722 0.033886C1.90853 -0.207515 0.397336 0.86494 0.126097 2.48352C-0.145143 4.06648 0.939815 5.60986 2.48975 5.88688C5.93706 6.4931 8.54177 9.34812 8.83003 12.8364L11.9056 50.0554C12.3319 55.2792 16.5942 59.3118 21.7478 59.3118H64.0224C68.9434 59.3118 73.1283 55.6354 73.8257 50.6451L77.5068 24.6845C77.8556 22.314 77.5843 19.7022 76.0344 17.8818Z" fill="url(#paint0_linear_318_279)"/>
<g filter="url(#filter0_f_318_279)">
<rect x="18.5125" y="25.8171" width="46.4707" height="27.8824" rx="5" fill="#D22BCC" fill-opacity="0.5"/>
</g>
<g filter="url(#filter1_b_318_279)">
<mask id="path-3-outside-1_318_279" maskUnits="userSpaceOnUse" x="22" y="14.6636" width="87" height="87" fill="black">
<rect fill="white" x="22" y="14.6636" width="87" height="87"/>
<path fill-rule="evenodd" clip-rule="evenodd" d="M31.3533 32.225C28.7831 32.225 27.0976 33.1287 25.4123 35.1082C23.7269 37.0877 23.4319 39.9278 23.8111 42.5055L27.8139 70.7349C28.5724 76.1613 33.123 80.1591 38.4741 80.1591H84.4434C90.0474 80.1591 94.6822 75.774 95.1457 70.0937L99.0221 23.1838L105.385 22.065C107.07 21.7637 108.25 20.0855 107.955 18.3641C107.66 16.6041 106.017 15.4379 104.289 15.7004L94.2398 17.2453C92.8072 17.5078 91.7538 18.7084 91.6274 20.1715L90.8269 29.8108C90.7005 31.1922 89.6049 32.225 88.2566 32.225H31.3533ZM85.119 86.961C88.6583 86.961 91.5235 89.8872 91.5235 93.502C91.5235 97.0737 88.6583 99.9999 85.119 99.9999C81.6218 99.9999 78.7566 97.0737 78.7566 93.502C78.7566 89.8872 81.6218 86.961 85.119 86.961ZM37.7174 86.961C41.2568 86.961 44.122 89.8872 44.122 93.502C44.122 97.0737 41.2568 99.9999 37.7174 99.9999C34.2202 99.9999 31.3551 97.0737 31.3551 93.502C31.3551 89.8872 34.2202 86.961 37.7174 86.961Z"/>
</mask>
<path fill-rule="evenodd" clip-rule="evenodd" d="M31.3533 32.225C28.7831 32.225 27.0976 33.1287 25.4123 35.1082C23.7269 37.0877 23.4319 39.9278 23.8111 42.5055L27.8139 70.7349C28.5724 76.1613 33.123 80.1591 38.4741 80.1591H84.4434C90.0474 80.1591 94.6822 75.774 95.1457 70.0937L99.0221 23.1838L105.385 22.065C107.07 21.7637 108.25 20.0855 107.955 18.3641C107.66 16.6041 106.017 15.4379 104.289 15.7004L94.2398 17.2453C92.8072 17.5078 91.7538 18.7084 91.6274 20.1715L90.8269 29.8108C90.7005 31.1922 89.6049 32.225 88.2566 32.225H31.3533ZM85.119 86.961C88.6583 86.961 91.5235 89.8872 91.5235 93.502C91.5235 97.0737 88.6583 99.9999 85.119 99.9999C81.6218 99.9999 78.7566 97.0737 78.7566 93.502C78.7566 89.8872 81.6218 86.961 85.119 86.961ZM37.7174 86.961C41.2568 86.961 44.122 89.8872 44.122 93.502C44.122 97.0737 41.2568 99.9999 37.7174 99.9999C34.2202 99.9999 31.3551 97.0737 31.3551 93.502C31.3551 89.8872 34.2202 86.961 37.7174 86.961Z" fill="#D22BCC" fill-opacity="0.35"/>
<path d="M25.4123 35.1082L26.1737 35.7564V35.7564L25.4123 35.1082ZM23.8111 42.5055L24.8005 42.3599L24.8012 42.3651L23.8111 42.5055ZM27.8139 70.7349L28.804 70.5945L28.8043 70.5965L27.8139 70.7349ZM95.1457 70.0937L94.149 70.0124L94.1491 70.0114L95.1457 70.0937ZM99.0221 23.1838L98.0255 23.1014C98.0629 22.6484 98.4012 22.2776 98.8489 22.1989L99.0221 23.1838ZM105.385 22.065L105.56 23.0494L105.558 23.0498L105.385 22.065ZM107.955 18.3641L106.969 18.533L106.968 18.5294L107.955 18.3641ZM104.289 15.7004L104.137 14.712L104.139 14.7118L104.289 15.7004ZM94.2398 17.2453L94.0596 16.2617C94.069 16.2599 94.0784 16.2584 94.0878 16.2569L94.2398 17.2453ZM91.6274 20.1715L90.6308 20.0887L90.6311 20.0854L91.6274 20.1715ZM90.8269 29.8108L91.8235 29.8936L91.8227 29.902L90.8269 29.8108ZM24.6508 34.4599C25.5507 33.403 26.4956 32.5801 27.6062 32.0286C28.723 31.474 29.9448 31.225 31.3533 31.225V33.225C30.1915 33.225 29.2855 33.4277 28.4957 33.8199C27.6997 34.2151 26.9592 34.8338 26.1737 35.7564L24.6508 34.4599ZM22.8218 42.651C22.4233 39.9427 22.6969 36.7547 24.6508 34.4599L26.1737 35.7564C24.7568 37.4206 24.4405 39.913 24.8005 42.3599L22.8218 42.651ZM26.8238 70.8753L22.821 42.6459L24.8012 42.3651L28.804 70.5945L26.8238 70.8753ZM38.4741 81.1591C32.6118 81.1591 27.6493 76.7814 26.8236 70.8733L28.8043 70.5965C29.4954 75.5413 33.6341 79.1591 38.4741 79.1591V81.1591ZM84.4434 81.1591H38.4741V79.1591H84.4434V81.1591ZM96.1424 70.175C95.6382 76.3545 90.5878 81.1591 84.4434 81.1591V79.1591C89.5069 79.1591 93.7262 75.1936 94.149 70.0124L96.1424 70.175ZM100.019 23.2662L96.1423 70.1761L94.1491 70.0114L98.0255 23.1014L100.019 23.2662ZM105.558 23.0498L99.1953 24.1687L98.8489 22.1989L105.211 21.0801L105.558 23.0498ZM108.94 18.1953C109.327 20.452 107.793 22.6504 105.56 23.0494L105.209 21.0806C106.347 20.8771 107.172 19.7189 106.969 18.533L108.94 18.1953ZM104.139 14.7118C106.403 14.3678 108.555 15.8962 108.941 18.1989L106.968 18.5294C106.764 17.312 105.63 16.5081 104.439 16.6891L104.139 14.7118ZM94.0878 16.2569L104.137 14.712L104.441 16.6888L94.3917 18.2337L94.0878 16.2569ZM90.6311 20.0854C90.7946 18.193 92.1649 16.6088 94.0596 16.2617L94.42 18.2289C93.4495 18.4067 92.713 19.2238 92.6237 20.2576L90.6311 20.0854ZM89.8303 29.7281L90.6309 20.0887L92.624 20.2543L91.8234 29.8936L89.8303 29.7281ZM88.2566 31.225C89.0613 31.225 89.7493 30.6132 89.831 29.7197L91.8227 29.902C91.6516 31.7712 90.1485 33.225 88.2566 33.225V31.225ZM31.3533 31.225H88.2566V33.225H31.3533V31.225ZM90.5235 93.502C90.5235 90.4195 88.0862 87.961 85.119 87.961V85.961C89.2304 85.961 92.5235 89.3549 92.5235 93.502H90.5235ZM85.119 98.9999C88.0905 98.9999 90.5235 96.537 90.5235 93.502H92.5235C92.5235 97.6103 89.2261 101 85.119 101V98.9999ZM79.7566 93.502C79.7566 96.5414 82.1938 98.9999 85.119 98.9999V101C81.0497 101 77.7566 97.606 77.7566 93.502H79.7566ZM85.119 87.961C82.198 87.961 79.7566 90.4152 79.7566 93.502H77.7566C77.7566 89.3593 81.0455 85.961 85.119 85.961V87.961ZM43.122 93.502C43.122 90.4195 40.6847 87.961 37.7174 87.961V85.961C41.8288 85.961 45.122 89.3549 45.122 93.502H43.122ZM37.7174 98.9999C40.689 98.9999 43.122 96.537 43.122 93.502H45.122C45.122 97.6103 41.8246 101 37.7174 101V98.9999ZM32.3551 93.502C32.3551 96.5414 34.7923 98.9999 37.7174 98.9999V101C33.6482 101 30.3551 97.606 30.3551 93.502H32.3551ZM37.7174 87.961C34.7965 87.961 32.3551 90.4152 32.3551 93.502H30.3551C30.3551 89.3593 33.6439 85.961 37.7174 85.961V87.961Z" fill="url(#paint1_linear_318_279)" mask="url(#path-3-outside-1_318_279)"/>
</g>
<g filter="url(#filter2_bd_318_279)">
<mask id="path-5-inside-2_318_279" fill="white">
<path fill-rule="evenodd" clip-rule="evenodd" d="M45.2154 54.5955H56.8867C58.6564 54.5955 60.0469 53.1324 60.0469 51.3681C60.0469 49.5607 58.6564 48.1406 56.8867 48.1406H45.2154C43.4457 48.1406 42.0552 49.5607 42.0552 51.3681C42.0552 53.1324 43.4457 54.5955 45.2154 54.5955Z"/>
</mask>
<path fill-rule="evenodd" clip-rule="evenodd" d="M45.2154 54.5955H56.8867C58.6564 54.5955 60.0469 53.1324 60.0469 51.3681C60.0469 49.5607 58.6564 48.1406 56.8867 48.1406H45.2154C43.4457 48.1406 42.0552 49.5607 42.0552 51.3681C42.0552 53.1324 43.4457 54.5955 45.2154 54.5955Z" fill="url(#paint2_linear_318_279)"/>
<path d="M45.2154 54.3955H56.8867V54.7955H45.2154V54.3955ZM56.8867 54.3955C58.5403 54.3955 59.8469 53.0277 59.8469 51.3681H60.2469C60.2469 53.2371 58.7725 54.7955 56.8867 54.7955V54.3955ZM59.8469 51.3681C59.8469 49.6672 58.542 48.3406 56.8867 48.3406V47.9406C58.7708 47.9406 60.2469 49.4542 60.2469 51.3681H59.8469ZM56.8867 48.3406H45.2154V47.9406H56.8867V48.3406ZM45.2154 48.3406C43.5601 48.3406 42.2552 49.6672 42.2552 51.3681H41.8552C41.8552 49.4542 43.3313 47.9406 45.2154 47.9406V48.3406ZM42.2552 51.3681C42.2552 53.0277 43.5618 54.3955 45.2154 54.3955V54.7955C43.3296 54.7955 41.8552 53.2371 41.8552 51.3681H42.2552Z" fill="url(#paint3_linear_318_279)" fill-opacity="0.5" mask="url(#path-5-inside-2_318_279)"/>
</g>
<defs>
<filter id="filter0_f_318_279" x="4.51245" y="11.8171" width="74.4707" height="55.8823" filterUnits="userSpaceOnUse" color-interpolation-filters="sRGB">
<feFlood flood-opacity="0" result="BackgroundImageFix"/>
<feBlend mode="normal" in="SourceGraphic" in2="BackgroundImageFix" result="shape"/>
<feGaussianBlur stdDeviation="7" result="effect1_foregroundBlur_318_279"/>
</filter>
<filter id="filter1_b_318_279" x="-1.33521" y="-9.33643" width="134.335" height="134.336" filterUnits="userSpaceOnUse" color-interpolation-filters="sRGB">
<feFlood flood-opacity="0" result="BackgroundImageFix"/>
<feGaussianBlur in="BackgroundImage" stdDeviation="12"/>
<feComposite in2="SourceAlpha" operator="in" result="effect1_backgroundBlur_318_279"/>
<feBlend mode="normal" in="SourceGraphic" in2="effect1_backgroundBlur_318_279" result="shape"/>
</filter>
<filter id="filter2_bd_318_279" x="27.0552" y="33.1406" width="47.9917" height="36.4548" filterUnits="userSpaceOnUse" color-interpolation-filters="sRGB">
<feFlood flood-opacity="0" result="BackgroundImageFix"/>
<feGaussianBlur in="BackgroundImage" stdDeviation="7.5"/>
<feComposite in2="SourceAlpha" operator="in" result="effect1_backgroundBlur_318_279"/>
<feColorMatrix in="SourceAlpha" type="matrix" values="0 0 0 0 0 0 0 0 0 0 0 0 0 0 0 0 0 0 127 0" result="hardAlpha"/>
<feOffset dx="5" dy="5"/>
<feGaussianBlur stdDeviation="5"/>
<feColorMatrix type="matrix" values="0 0 0 0 0.823529 0 0 0 0 0.168627 0 0 0 0 0.8 0 0 0 0.5 0"/>
<feBlend mode="normal" in2="effect1_backgroundBlur_318_279" result="effect2_dropShadow_318_279"/>
<feBlend mode="normal" in="SourceGraphic" in2="effect2_dropShadow_318_279" result="shape"/>
</filter>
<linearGradient id="paint0_linear_318_279" x1="77.6418" y1="0" x2="38.8602" y2="59.3099" gradientUnits="userSpaceOnUse">
<stop stop-color="#FB66F5"/>
<stop offset="1" stop-color="#D22BCC"/>
</linearGradient>
<linearGradient id="paint1_linear_318_279" x1="94.5751" y1="25.4889" x2="40.7775" y2="92.1181" gradientUnits="userSpaceOnUse">
<stop stop-color="white" stop-opacity="0.25"/>
<stop offset="1" stop-color="white" stop-opacity="0"/>
</linearGradient>
<linearGradient id="paint2_linear_318_279" x1="43.3308" y1="49.3062" x2="63.2288" y2="51.1145" gradientUnits="userSpaceOnUse">
<stop stop-color="white"/>
<stop offset="1" stop-color="white" stop-opacity="0.2"/>
</linearGradient>
<linearGradient id="paint3_linear_318_279" x1="58.1088" y1="50.3059" x2="42.8345" y2="50.541" gradientUnits="userSpaceOnUse">
<stop stop-color="white"/>
<stop offset="1" stop-color="white" stop-opacity="0"/>
</linearGradient>
</defs>
</svg>
