<svg width="26" height="30" viewBox="0 0 26 30" fill="none" xmlns="http://www.w3.org/2000/svg">
<path d="M12.9998 1L1.87549 7.42265C1.25669 7.77992 0.875488 8.44017 0.875488 9.1547V22M25.1242 8V20.8453C25.1242 21.5598 24.743 22.2201 24.1242 22.5774L12.9998 29" stroke="white" stroke-linecap="round" stroke-linejoin="round"/>
<path fill-rule="evenodd" clip-rule="evenodd" d="M13.9999 5.57728C13.3811 5.22001 12.6187 5.22001 11.9999 5.57728L5.3396 9.42257C4.7208 9.77984 4.3396 10.4401 4.3396 11.1546V18.8452C4.3396 19.5598 4.7208 20.22 5.3396 20.5773L11.9999 24.4226C12.6187 24.7798 13.3811 24.7798 13.9999 24.4226L20.6601 20.5773C21.2789 20.22 21.6601 19.5598 21.6601 18.8452V11.1546C21.6601 10.4401 21.2789 9.77984 20.6601 9.42257L13.9999 5.57728ZM8.10585 19.2719C8.10585 19.8319 8.37652 20.1119 8.91786 20.1119C9.45919 20.1119 9.72986 19.8319 9.72986 19.2719V13.3779L12.3619 18.1519C12.4459 18.3013 12.5439 18.4179 12.6559 18.5019C12.7679 18.5766 12.9125 18.6139 13.0899 18.6139C13.2672 18.6139 13.4072 18.5766 13.5099 18.5019C13.6125 18.4273 13.7105 18.3106 13.8039 18.1519L16.4359 13.3499V19.2719C16.4359 19.8319 16.7065 20.1119 17.2479 20.1119C17.7892 20.1119 18.0599 19.8319 18.0599 19.2719V10.8579C18.0599 10.2979 17.7892 10.0179 17.2479 10.0179C17.0145 10.0179 16.8325 10.0646 16.7019 10.1579C16.5712 10.2419 16.4499 10.3913 16.3379 10.6059L13.1039 16.5839L9.86986 10.6059C9.75785 10.3913 9.63186 10.2419 9.49186 10.1579C9.36119 10.0646 9.17919 10.0179 8.94586 10.0179C8.38586 10.0179 8.10585 10.2979 8.10585 10.8579V19.2719Z" fill="white"/>
</svg>
